<svg width="26" height="30" viewBox="0 0 26 30" fill="none" xmlns="http://www.w3.org/2000/svg">
<path d="M10.3099 12.4651C9.46307 12.4651 8.79449 13.2079 8.79449 14.1142C8.79449 15.0205 9.47792 15.7634 10.3099 15.7634C11.1568 15.7634 11.8254 15.0205 11.8254 14.1142C11.8402 13.2079 11.1568 12.4651 10.3099 12.4651ZM15.7328 12.4651C14.8859 12.4651 14.2174 13.2079 14.2174 14.1142C14.2174 15.0205 14.9008 15.7634 15.7328 15.7634C16.5796 15.7634 17.2482 15.0205 17.2482 14.1142C17.2482 13.2079 16.5796 12.4651 15.7328 12.4651Z" fill="#2D3E7D"/>
<path d="M22.9543 0H3.04571C1.36686 0 0 1.36686 0 3.06057V23.1474C0 24.8411 1.36686 26.208 3.04571 26.208H19.8937L19.1063 23.4594L21.008 25.2274L22.8057 26.8914L26 29.7143V3.06057C26 1.36686 24.6331 0 22.9543 0ZM17.2194 19.4034C17.2194 19.4034 16.6846 18.7646 16.2389 18.2C18.1851 17.6503 18.928 16.432 18.928 16.432C18.3189 16.8331 17.7394 17.1154 17.2194 17.3086C16.4766 17.6206 15.7634 17.8286 15.0651 17.9474C13.6389 18.2149 12.3314 18.1406 11.2171 17.9326C10.3703 17.7691 9.64229 17.5314 9.03314 17.2937C8.69143 17.16 8.32 16.9966 7.94857 16.7886C7.904 16.7589 7.85943 16.744 7.81486 16.7143C7.78514 16.6994 7.77029 16.6846 7.75543 16.6697C7.488 16.5211 7.33943 16.4171 7.33943 16.4171C7.33943 16.4171 8.05257 17.6057 9.93943 18.1703C9.49371 18.7349 8.944 19.4034 8.944 19.4034C5.66057 19.2994 4.41257 17.1451 4.41257 17.1451C4.41257 12.3611 6.552 8.48343 6.552 8.48343C8.69143 6.87886 10.7269 6.92343 10.7269 6.92343L10.8754 7.10172C8.20114 7.87429 6.968 9.048 6.968 9.048C6.968 9.048 7.29486 8.86972 7.84457 8.61714C9.43429 7.91886 10.6971 7.72571 11.2171 7.68114C11.3063 7.66629 11.3806 7.65143 11.4697 7.65143C12.376 7.53257 13.4011 7.50286 14.4709 7.62172C15.8823 7.78514 17.3977 8.20114 18.9429 9.048C18.9429 9.048 17.7691 7.93371 15.2434 7.16114L15.4514 6.92343C15.4514 6.92343 17.4869 6.87886 19.6263 8.48343C19.6263 8.48343 21.7657 12.3611 21.7657 17.1451C21.7657 17.1451 20.5029 19.2994 17.2194 19.4034Z" fill="#2D3E7D"/>
</svg>
