<svg width="34" height="38" viewBox="0 0 34 38" fill="none" xmlns="http://www.w3.org/2000/svg">
<path d="M3.0037 32.582C-0.0532975 32.5511 0.0113198 32.5103 0.000439204 32.6567C-0.0148084 32.8608 0.371415 32.7061 0.463789 33.036L0.464233 33.0393C0.473559 33.3325 0.45054 37.0549 0.44906 37.2863C0.445803 37.3098 0.419675 37.4526 0.264164 37.5375C0.219161 37.5622 0.196512 37.6141 0.209243 37.6638C0.2219 37.7135 0.26668 37.7483 0.317975 37.7483H0.341438C0.812634 37.7483 1.4503 37.7619 1.81187 37.8272C2.06738 37.8733 2.31734 37.8967 2.55486 37.8967C2.55501 37.8967 2.55493 37.8967 2.55501 37.8967C4.40189 37.8967 5.3756 36.4849 5.38263 35.0904C5.3887 33.8939 4.64682 32.5986 3.0037 32.582ZM1.39582 33.0085C4.6517 32.7994 4.70544 35.2613 4.21537 36.4661C3.9589 37.0967 3.06033 37.4735 2.33954 37.4735C1.89366 37.4734 1.56813 37.3324 1.4215 37.0761L1.39582 33.0085Z" fill="white"/>
<path d="M7.32544 35.1962C7.32544 36.9528 8.76308 37.8719 10.1831 37.8719C11.5602 37.8719 13.0238 36.8898 13.0238 35.0699C13.0238 31.6031 7.32544 31.5144 7.32544 35.1962ZM8.34577 35.1853C8.34577 33.8973 8.71682 32.8612 10.0167 32.8612C11.0364 32.8612 11.965 33.9095 11.965 35.063C11.987 36.0998 11.7567 37.3595 10.5358 37.4772C9.27269 37.4753 8.53585 36.7027 8.34614 35.1874L8.34577 35.1853Z" fill="white"/>
<path d="M19.1936 32.5136C19.081 32.5494 18.9446 32.5734 18.8542 32.5734C18.761 32.5734 15.4008 32.5686 15.199 32.5683C15.0597 32.4954 14.8431 32.4066 14.8094 32.5599L14.6701 33.1936C14.6585 33.2464 14.6862 33.3 14.736 33.3211C14.7857 33.342 14.8435 33.3247 14.8734 33.2795C14.9339 33.1878 15.0251 33.1184 15.1518 33.0674C15.4771 33.0544 16.3502 33.0529 16.5421 33.0527L16.5221 37.3179C16.5218 37.3242 16.5132 37.4719 16.3757 37.5556C16.2792 37.6143 16.3209 37.7637 16.434 37.7637C16.4348 37.7637 17.6302 37.7583 17.6311 37.7583C17.7489 37.7578 17.7862 37.5978 17.6804 37.5455C17.5823 37.4969 17.5303 37.4235 17.5219 37.3282C17.5173 37.1298 17.4877 33.7494 17.4816 33.0536L18.705 33.0826C18.716 33.0831 18.9742 33.0978 19.0656 33.3551C19.0836 33.4058 19.1354 33.4365 19.1885 33.4283C19.3064 33.4102 19.2846 33.3257 19.3007 32.7965C19.3262 32.7387 19.3471 32.6584 19.3384 32.6031C19.3277 32.5351 19.2592 32.493 19.1936 32.5136Z" fill="white"/>
<path d="M26.0152 36.1844C25.7143 36.1796 25.0869 36.179 24.9535 36.179C24.9492 36.1683 23.4498 32.4595 23.4498 32.4595C23.4092 32.3635 23.2787 32.3721 23.2425 32.461L21.2828 37.2807C21.282 37.2825 21.1949 37.4566 20.9825 37.5584C20.875 37.6099 20.9123 37.7716 21.0308 37.7718C21.0369 37.7718 21.9193 37.7732 21.9193 37.7732C22.0456 37.7732 22.0744 37.5965 21.9564 37.555C21.8942 37.5238 21.8656 37.4799 21.8832 37.4125C21.9461 37.1963 22.1139 36.7268 22.1545 36.6138L24.1099 36.6189L24.4942 37.5296C24.4958 37.5334 24.4998 37.5504 24.4872 37.5694C24.4218 37.6407 24.4716 37.7561 24.5683 37.7575C24.5762 37.7576 25.6837 37.7732 25.6837 37.7732C25.7498 37.7732 25.7974 37.7209 25.7974 37.661C25.7974 37.6118 25.7656 37.5699 25.7214 37.5548C25.5744 37.4839 25.5128 37.4165 25.135 36.6155C25.4687 36.6226 25.5317 36.4722 26.0278 36.4079C26.0862 36.4004 26.1288 36.349 26.1255 36.2903C26.1221 36.2316 26.074 36.1853 26.0152 36.1844ZM23.1604 33.9906L23.9477 36.172L22.3068 36.191L23.1604 33.9906Z" fill="white"/>
<path d="M32.9945 36.5916C32.8866 36.8278 32.7535 37.0595 32.4204 37.073C32.247 37.0798 31.3231 37.1164 30.7428 37.1121C34.2226 34.458 33.296 32.4598 31.2228 32.4598C30.7682 32.4598 30.3115 32.5693 29.9695 32.7602C29.9365 32.7786 29.915 32.8124 29.9123 32.85C29.9036 32.9702 29.9267 33.213 29.9813 33.5718C29.989 33.6226 30.0302 33.6617 30.0813 33.6666C30.132 33.6712 30.1805 33.6411 30.1979 33.5928C30.3978 33.0352 30.7998 32.8365 31.1092 32.8365C31.552 32.8365 32.0149 33.2165 32.0429 33.9428C32.1052 35.559 30.1363 37.0844 29.695 37.5045C29.6201 37.5691 29.5614 37.6371 29.6235 37.7154C29.6235 37.8564 29.8019 37.8744 29.8418 37.7593C30.2205 37.7571 32.2762 37.7452 32.6567 37.7494C32.9325 37.7693 33.0689 37.609 33.075 37.4297L33.2073 36.6572C33.2293 36.5282 33.0487 36.4731 32.9945 36.5916Z" fill="white"/>
<path d="M31.2369 6.80259C31.1216 1.35083 31.1145 2.52926 31.2267 0.830118C31.2334 0.72938 31.1573 0.642335 31.0566 0.635451C22.9386 0.0801715 22.631 0.0161463 22.0019 0.0161463C10.9274 0.0152581 16.7415 -0.165715 1.95931 0.706286C1.85887 0.712282 1.78211 0.798142 1.78736 0.89851C2.74004 19.1766 2.70526 16.1948 2.21859 28.3766C2.21511 28.4641 2.2741 28.5418 2.35937 28.5619C3.46571 28.8235 3.26964 28.7205 5.85041 28.7224C5.85463 28.7236 10.6868 28.196 10.6912 28.1955C10.714 28.1993 17.3732 29.2922 17.3964 29.2922C17.4015 29.2922 17.4065 29.292 17.4117 29.2916C25.2161 28.6376 22.9791 28.7956 28.0142 28.5165L30.9706 29.1145C31.0857 29.1376 31.1911 29.0487 31.1899 28.9332C31.1259 22.9808 31.2369 6.80259 31.2369 6.80259ZM19.2357 6.3687C19.2577 6.36337 19.2892 6.35568 19.3284 6.34524L21.4327 5.87101C22.5107 5.60092 22.6699 5.53512 23.5923 5.10145H23.5924C24.0183 5.24919 25.186 5.89536 25.482 6.26634C25.6776 6.51193 25.6648 6.56655 25.6033 6.82954C25.5914 6.88002 25.5779 6.93812 25.5637 7.00674C25.5627 7.01125 25.562 7.01591 25.5613 7.0205L25.0985 10.6417C24.6407 10.6586 24.6025 10.6235 24.4758 10.507C24.4236 10.4587 24.3585 10.3987 24.2438 10.3218C23.5475 9.85449 21.2688 8.16844 20.5493 7.58807L19.1348 6.4516L19.1462 6.44058C19.1615 6.42533 19.1751 6.40482 19.1842 6.38521C19.1913 6.37966 19.2192 6.37277 19.2357 6.3687ZM22.515 24.6015C22.4736 24.5601 4.83193 5.85769 4.81898 5.83185L6.36024 4.6495L27.8986 18.9113C27.7206 19.4213 27.6495 20.0067 27.5425 20.4927C27.1641 22.2094 26.6775 22.9606 25.9166 24.5916C24.8276 24.6349 22.59 24.6265 22.515 24.6015ZM6.46683 19.5415C6.66512 19.0649 6.93773 18.2983 7.16689 17.9099C8.29343 18.6139 12.6942 23.0356 13.077 23.6326C12.865 23.7113 11.9544 23.8466 10.4416 24.451C9.48304 24.8333 8.57796 25.1961 7.70374 24.8994C7.61654 24.8701 7.38413 24.6728 7.0395 24.3753C6.41006 23.832 5.84005 23.4405 5.5086 23.2449C4.94325 22.9111 5.03133 22.9815 6.46683 19.5415Z" fill="#EA473B"/>
<path d="M4.03846 19.5802C3.90034 12.4558 4.0546 16.3366 3.23596 0.630859L1.95931 0.706135C1.85887 0.712131 1.78211 0.797991 1.78736 0.898359L2.46707 13.9393C2.60208 20.9053 2.63901 17.8526 2.21859 28.3765C2.21511 28.464 2.2741 28.5416 2.35937 28.5618C2.98371 28.7094 3.24322 28.7425 3.68244 28.7425C3.66867 28.6955 3.65349 29.2149 4.03846 19.5802Z" fill="#D82B27"/>
<path d="M13.9938 24.0348C13.9938 24.0348 14.7403 23.7778 14.1266 23.1042C11.6217 20.3104 10.0958 19.2983 8.64539 17.7071C8.03926 17.0509 7.16748 17.9094 7.16748 17.9094C12.8359 22.948 11.7003 22.2187 12.6995 23.1834C12.8321 23.3115 12.9368 23.4126 13.0776 23.6321C13.0514 23.6418 12.9355 23.6711 12.7752 23.7115C10.4169 24.3066 10.063 24.7106 9.01 24.9363C9.99273 25.7376 11.7256 24.76 12.9611 24.3346C13.2565 24.233 13.6478 24.1252 13.9938 24.0348Z" fill="#D82B27"/>
<path d="M28.972 17.4276C28.9719 17.4275 8.38068 4.29594 8.38068 4.29594C7.69083 3.85605 6.94688 4.06774 6.36133 4.64922L27.8997 18.911C27.7217 19.4211 27.6506 20.0064 27.5436 20.4925C27.1652 22.2092 26.6786 22.9603 25.9177 24.5913C25.9177 24.5913 27.8684 24.9663 28.4631 23.6462C29.8586 20.6763 29.5364 20.1162 29.8689 19.1784C29.8294 18.6495 29.9029 18.0214 28.972 17.4276Z" fill="#D82B27"/>
<path d="M25.5648 7.00627C25.5639 7.01079 25.5631 7.01545 25.5624 7.02004L25.0997 10.6413C25.0997 10.6413 26.9306 11.7721 27.1606 9.9128C27.1607 9.9122 27.1608 9.91161 27.1609 9.91102L27.5396 6.84973C27.5403 6.84506 27.541 6.84033 27.542 6.83566C27.5565 6.76549 27.5704 6.70613 27.5825 6.65454C27.6453 6.38571 27.6585 6.32983 27.4585 6.07876C27.2483 5.81526 26.3063 5.11979 25.6046 4.6688C24.9422 4.22469 24.1555 4.75873 24.1555 4.75873C23.9592 4.90921 23.7837 5.04066 23.5935 5.10099C24.0745 5.36116 25.2934 6.02813 25.4831 6.26588C25.6787 6.51147 25.6659 6.56609 25.6043 6.82908C25.5925 6.87963 25.579 6.93773 25.5648 7.00627Z" fill="#D82B27"/>
</svg>
