<svg width="26" height="26" viewBox="0 0 26 26" fill="none" xmlns="http://www.w3.org/2000/svg">
<path d="M22.4964 0H3.50358C1.56864 0 0 1.56858 0 3.50358V22.4965C0 24.4315 1.56858 26.0001 3.50358 26.0001H12.8707L12.8867 16.709H10.4729C10.1592 16.709 9.9046 16.4554 9.90339 16.1417L9.89181 13.1468C9.8906 12.8314 10.146 12.5751 10.4614 12.5751H12.8708V9.68128C12.8708 6.32304 14.9218 4.49445 17.9176 4.49445H20.3758C20.6903 4.49445 20.9454 4.74944 20.9454 5.06402V7.58931C20.9454 7.90377 20.6905 8.15869 20.3761 8.15888L18.8675 8.15958C17.2384 8.15958 16.9229 8.93376 16.9229 10.0699V12.5752H20.5028C20.8439 12.5752 21.1085 12.873 21.0683 13.2118L20.7134 16.2066C20.6794 16.4932 20.4364 16.7092 20.1478 16.7092H16.9388L16.9229 26.0002H22.4965C24.4314 26.0002 26 24.4316 26 22.4967V3.50358C25.9999 1.56858 24.4314 0 22.4964 0Z" fill="#19295A"/>
</svg>
