<svg width="21" height="21" viewBox="0 0 21 21" fill="none" xmlns="http://www.w3.org/2000/svg">
<path d="M11.5172 12.6662H16.6459C15.7456 15.2109 13.3075 17.0354 10.453 17.0143C6.98955 16.9888 4.12572 14.2186 3.99126 10.7583C3.84713 7.04904 6.8235 3.9855 10.502 3.9855C12.1839 3.9855 13.7187 4.62623 14.8759 5.67613C15.1499 5.92487 15.5671 5.92645 15.8367 5.67276L17.7204 3.9002C18.015 3.62295 18.016 3.15476 17.7223 2.87658C15.8873 1.1384 13.4256 0.0549775 10.711 0.00197751C4.92102 -0.111041 0.0405918 4.63525 0.000261249 10.4251C-0.0404275 16.2585 4.67695 21 10.502 21C16.1037 21 20.6799 16.6147 20.9865 11.0906C20.9946 11.0213 21 8.68065 21 8.68065H11.5172C11.1285 8.68065 10.8135 8.99565 10.8135 9.38426V11.9626C10.8135 12.3512 11.1286 12.6662 11.5172 12.6662Z" fill="#8D0F0C"/>
</svg>
