<svg width="22" height="19" viewBox="0 0 22 19" fill="none" xmlns="http://www.w3.org/2000/svg">
<path d="M11.005 4C13.7663 4 16.0073 6.24 16.0073 9C16.0073 9.65 15.8772 10.26 15.6471 10.83L18.5684 13.75C20.0791 12.49 21.2697 10.86 22 9C20.2692 4.61 15.9973 1.5 10.995 1.5C9.59436 1.5 8.25375 1.75 7.01319 2.2L9.17417 4.36C9.74443 4.13 10.3547 4 11.005 4ZM1.00045 1.27L3.28149 3.55L3.7417 4.01C2.08095 5.3 0.780355 7.02 0 9C1.73079 13.39 6.00273 16.5 11.005 16.5C12.5557 16.5 14.0364 16.2 15.387 15.66L15.8072 16.08L18.7385 19L20.0091 17.73L2.27103 0L1.00045 1.27ZM6.53297 6.8L8.08367 8.35C8.03365 8.56 8.00364 8.78 8.00364 9C8.00364 10.66 9.34425 12 11.005 12C11.2251 12 11.4452 11.97 11.6553 11.92L13.206 13.47C12.5357 13.8 11.7954 14 11.005 14C8.24375 14 6.00273 11.76 6.00273 9C6.00273 8.21 6.20282 7.47 6.53297 6.8ZM10.8449 6.02L13.9964 9.17L14.0164 9.01C14.0164 7.35 12.6758 6.01 11.015 6.01L10.8449 6.02Z" fill="white"/>
</svg>
