<svg width="141" height="45" viewBox="0 0 141 45" fill="none" xmlns="http://www.w3.org/2000/svg">
<path d="M0 0H44.867V44.867H0V0Z" fill="#770FFE"/>
<path d="M30.208 7L14.2861 23.3251V14.288L21.5233 7H30.208Z" fill="white"/>
<path d="M18.4942 38.834L18.4942 32.6906L35.2488 32.6906L35.2488 38.834L18.4942 38.834Z" fill="white"/>
<path d="M29.9432 27.385H36.0865V38.834H29.9432L29.9432 27.385Z" fill="white"/>
<path d="M36.0865 22.3582L36.0865 28.5015L27.9885 28.5015L27.9885 22.3582L36.0865 22.3582Z" fill="white"/>
<path fill-rule="evenodd" clip-rule="evenodd" d="M24.6376 17.6111L18.4942 23.91V38.6857H24.6376V17.6111Z" fill="white"/>
<path d="M9 7.00024H15.1433V38.8339H9V7.00024Z" fill="white"/>
<path d="M69.3634 20.84L66.5292 16.94H66.3612H63.401V20.84H60V6.84H66.3612C67.6628 6.84 68.7895 7.04667 69.7413 7.46C70.707 7.87333 71.4488 8.46 71.9666 9.22C72.4845 9.98 72.7434 10.88 72.7434 11.92C72.7434 12.96 72.4775 13.86 71.9456 14.62C71.4278 15.3667 70.686 15.94 69.7203 16.34L73.0163 20.84H69.3634ZM69.3004 11.92C69.3004 11.1333 69.0345 10.5333 68.5026 10.12C67.9708 9.69333 67.194 9.48 66.1723 9.48H63.401V14.36H66.1723C67.194 14.36 67.9708 14.1467 68.5026 13.72C69.0345 13.2933 69.3004 12.6933 69.3004 11.92Z" fill="white"/>
<path d="M79.6603 9.92C81.4098 9.92 82.7534 10.32 83.6912 11.12C84.6289 11.9067 85.0978 13.1 85.0978 14.7V20.84H82.0326V19.5C81.4168 20.5 80.2691 21 78.5896 21C77.7219 21 76.9661 20.86 76.3222 20.58C75.6924 20.3 75.2096 19.9133 74.8737 19.42C74.5378 18.9267 74.3698 18.3667 74.3698 17.74C74.3698 16.74 74.7617 15.9533 75.5455 15.38C76.3432 14.8067 77.5679 14.52 79.2194 14.52H81.8227C81.8227 13.84 81.6058 13.32 81.1719 12.96C80.738 12.5867 80.0872 12.4 79.2194 12.4C78.6176 12.4 78.0228 12.4933 77.4349 12.68C76.8611 12.8533 76.3712 13.0933 75.9653 13.4L74.7897 11.22C75.4055 10.8067 76.1403 10.4867 76.9941 10.26C77.8618 10.0333 78.7506 9.92 79.6603 9.92ZM79.4084 18.9C79.9682 18.9 80.4651 18.78 80.899 18.54C81.3328 18.2867 81.6408 17.92 81.8227 17.44V16.34H79.5763C78.2327 16.34 77.5609 16.76 77.5609 17.6C77.5609 18 77.7219 18.32 78.0438 18.56C78.3797 18.7867 78.8345 18.9 79.4084 18.9Z" fill="white"/>
<path d="M94.9269 9.92C96.3266 9.92 97.4532 10.32 98.307 11.12C99.1748 11.92 99.6086 13.1067 99.6086 14.68V20.84H96.3336V15.16C96.3336 14.3067 96.1376 13.6733 95.7457 13.26C95.3538 12.8333 94.787 12.62 94.0452 12.62C93.2194 12.62 92.5616 12.8667 92.0718 13.36C91.5819 13.84 91.337 14.56 91.337 15.52V20.84H88.0619V10.08H91.19V11.34C91.6239 10.8867 92.1627 10.54 92.8065 10.3C93.4504 10.0467 94.1572 9.92 94.9269 9.92Z" fill="white"/>
<path d="M107.427 16.62L105.852 18.1V20.84H102.577V6H105.852V14.4L110.639 10.08H114.544L109.841 14.64L114.964 20.84H110.996L107.427 16.62Z" fill="white"/>
<path d="M127.009 15.5C127.009 15.54 126.988 15.82 126.946 16.34H118.401C118.555 17.0067 118.919 17.5333 119.493 17.92C120.066 18.3067 120.78 18.5 121.634 18.5C122.222 18.5 122.74 18.42 123.188 18.26C123.649 18.0867 124.076 17.82 124.468 17.46L126.211 19.26C125.147 20.42 123.594 21 121.55 21C120.276 21 119.15 20.7667 118.17 20.3C117.19 19.82 116.435 19.16 115.903 18.32C115.371 17.48 115.105 16.5267 115.105 15.46C115.105 14.4067 115.364 13.46 115.882 12.62C116.414 11.7667 117.134 11.1067 118.044 10.64C118.968 10.16 119.997 9.92 121.13 9.92C122.236 9.92 123.237 10.1467 124.132 10.6C125.028 11.0533 125.728 11.7067 126.232 12.56C126.75 13.4 127.009 14.38 127.009 15.5ZM121.151 12.28C120.409 12.28 119.787 12.48 119.283 12.88C118.779 13.28 118.471 13.8267 118.359 14.52H123.922C123.81 13.84 123.503 13.3 122.999 12.9C122.495 12.4867 121.879 12.28 121.151 12.28Z" fill="white"/>
<path d="M140.694 6V20.84H137.566V19.6C136.754 20.5333 135.578 21 134.039 21C132.975 21 132.009 20.7733 131.141 20.32C130.288 19.8667 129.616 19.22 129.126 18.38C128.636 17.54 128.391 16.5667 128.391 15.46C128.391 14.3533 128.636 13.38 129.126 12.54C129.616 11.7 130.288 11.0533 131.141 10.6C132.009 10.1467 132.975 9.92 134.039 9.92C135.48 9.92 136.607 10.3533 137.419 11.22V6H140.694ZM134.605 18.44C135.431 18.44 136.117 18.1733 136.663 17.64C137.209 17.0933 137.482 16.3667 137.482 15.46C137.482 14.5533 137.209 13.8333 136.663 13.3C136.117 12.7533 135.431 12.48 134.605 12.48C133.766 12.48 133.073 12.7533 132.527 13.3C131.981 13.8333 131.708 14.5533 131.708 15.46C131.708 16.3667 131.981 17.0933 132.527 17.64C133.073 18.1733 133.766 18.44 134.605 18.44Z" fill="white"/>
<path d="M69.2759 32H70.4626V36.5C69.9166 36.9831 69.2704 37.3539 68.5238 37.6124C67.7773 37.8708 66.9918 38 66.1672 38C64.9973 38 63.9444 37.7416 63.0084 37.2247C62.0725 36.7079 61.3371 35.9944 60.8022 35.0843C60.2674 34.1629 60 33.1348 60 32C60 30.8652 60.2674 29.8427 60.8022 28.9326C61.3371 28.0112 62.0725 27.2921 63.0084 26.7753C63.9444 26.2584 65.0029 26 66.184 26C67.0753 26 67.8943 26.1461 68.6408 26.4382C69.3874 26.7191 70.0169 27.1404 70.5294 27.7022L69.7606 28.4944C68.8358 27.573 67.6603 27.1124 66.2341 27.1124C65.287 27.1124 64.4291 27.3258 63.6602 27.7528C62.9026 28.1685 62.3065 28.7528 61.8719 29.5056C61.4374 30.2472 61.2201 31.0787 61.2201 32C61.2201 32.9213 61.4374 33.7528 61.8719 34.4944C62.3065 35.236 62.9026 35.8202 63.6602 36.2472C64.4179 36.6742 65.2703 36.8876 66.2174 36.8876C67.4208 36.8876 68.4403 36.5843 69.2759 35.9775V32Z" fill="#A293B6"/>
<path d="M76.7876 28.9663C77.9352 28.9663 78.8154 29.2584 79.4283 29.8427C80.0411 30.4157 80.3475 31.2697 80.3475 32.4045V37.8989H79.211V36.5169C78.9436 36.9775 78.548 37.3371 78.0243 37.5955C77.5118 37.8539 76.899 37.9831 76.1859 37.9831C75.2054 37.9831 74.4254 37.7472 73.846 37.2753C73.2666 36.8034 72.9769 36.1798 72.9769 35.4045C72.9769 34.6517 73.2443 34.0449 73.7792 33.5843C74.3251 33.1236 75.1886 32.8933 76.3697 32.8933H79.1609V32.3539C79.1609 31.5899 78.9492 31.0112 78.5257 30.618C78.1023 30.2135 77.4839 30.0112 76.6706 30.0112C76.1135 30.0112 75.5786 30.1067 75.0661 30.2978C74.5535 30.4775 74.1134 30.7303 73.7457 31.0562L73.2109 30.1629C73.6566 29.7809 74.1914 29.4888 74.8154 29.2865C75.4393 29.073 76.0967 28.9663 76.7876 28.9663ZM76.3697 37.0393C77.0382 37.0393 77.6121 36.8876 78.0912 36.5843C78.5703 36.2697 78.9269 35.8202 79.1609 35.236V33.7865H76.4032C74.8989 33.7865 74.1468 34.3146 74.1468 35.3708C74.1468 35.8876 74.3418 36.2978 74.7318 36.6011C75.1218 36.8933 75.6678 37.0393 76.3697 37.0393Z" fill="#A293B6"/>
<path d="M94.5346 28.9663C95.6376 28.9663 96.5012 29.2865 97.1251 29.927C97.7602 30.5674 98.0778 31.5112 98.0778 32.7584V37.8989H96.8911V32.8764C96.8911 31.9551 96.6683 31.2528 96.2226 30.7697C95.7881 30.2865 95.1697 30.0449 94.3674 30.0449C93.4538 30.0449 92.7351 30.3315 92.2114 30.9045C91.6877 31.4663 91.4259 32.2472 91.4259 33.2472V37.8989H90.2392V32.8764C90.2392 31.9551 90.0164 31.2528 89.5707 30.7697C89.1361 30.2865 88.5122 30.0449 87.6988 30.0449C86.7963 30.0449 86.0776 30.3315 85.5428 30.9045C85.0191 31.4663 84.7572 32.2472 84.7572 33.2472V37.8989H83.5706V29.0337H84.7071V30.6517C85.0191 30.1124 85.4536 29.6966 86.0107 29.4045C86.5678 29.1124 87.2085 28.9663 87.9328 28.9663C88.6682 28.9663 89.3033 29.1236 89.8381 29.4382C90.3841 29.7528 90.7908 30.2191 91.0582 30.8371C91.3813 30.2528 91.8437 29.7978 92.4454 29.4719C93.0582 29.1348 93.7546 28.9663 94.5346 28.9663Z" fill="#A293B6"/>
<path d="M108.983 33.8371H101.629C101.696 34.7584 102.047 35.5056 102.682 36.0787C103.317 36.6404 104.12 36.9213 105.089 36.9213C105.635 36.9213 106.136 36.8258 106.593 36.6348C107.05 36.4326 107.446 36.1405 107.78 35.7584L108.448 36.5337C108.058 37.0056 107.568 37.3652 106.978 37.6124C106.398 37.8596 105.758 37.9831 105.056 37.9831C104.153 37.9831 103.351 37.7921 102.649 37.4101C101.958 37.0169 101.418 36.4775 101.028 35.7921C100.638 35.1067 100.443 34.3315 100.443 33.4663C100.443 32.6011 100.627 31.8258 100.994 31.1405C101.373 30.4551 101.886 29.9213 102.532 29.5393C103.189 29.1573 103.925 28.9663 104.738 28.9663C105.551 28.9663 106.281 29.1573 106.928 29.5393C107.574 29.9213 108.081 30.4551 108.448 31.1405C108.816 31.8146 109 32.5899 109 33.4663L108.983 33.8371ZM104.738 29.9944C103.891 29.9944 103.178 30.2697 102.599 30.8202C102.031 31.3596 101.707 32.0674 101.629 32.9438H107.863C107.785 32.0674 107.457 31.3596 106.877 30.8202C106.309 30.2697 105.596 29.9944 104.738 29.9944Z" fill="#A293B6"/>
</svg>
