<svg width="20" height="20" viewBox="0 0 20 20" fill="none" xmlns="http://www.w3.org/2000/svg">
<path d="M19.315 8.07692H18.2392C18.0269 7.16346 17.6677 6.30692 17.1858 5.53346L17.9465 4.77269C18.2138 4.50538 18.2138 4.07154 17.9465 3.80423L16.1954 2.05308C15.9281 1.78577 15.4942 1.78577 15.2269 2.05308L14.4662 2.81385C13.6931 2.33231 12.8365 1.97308 11.9231 1.76077V0.685C11.9231 0.306538 11.6165 0 11.2381 0H8.76154C8.38346 0 8.07692 0.306538 8.07692 0.685V1.76077C7.16346 1.97308 6.30692 2.33231 5.53346 2.81423L4.77308 2.05346C4.50577 1.78615 4.07192 1.78615 3.80462 2.05346L2.05346 3.80462C1.78615 4.07192 1.78615 4.50577 2.05346 4.77308L2.81423 5.53385C2.33231 6.30692 1.97308 7.16346 1.76077 8.07692H0.685C0.306538 8.07692 0 8.38346 0 8.76192V11.2385C0 11.6165 0.306538 11.9231 0.685 11.9231H1.76077C1.97308 12.8365 2.33231 13.6931 2.81423 14.4665L2.05346 15.2269C1.78615 15.4946 1.78615 15.9281 2.05346 16.1954L3.80462 17.9465C4.07192 18.2138 4.50577 18.2138 4.77308 17.9465L5.53385 17.1858C6.30731 17.6673 7.16385 18.0269 8.07731 18.2392V19.315C8.07692 19.6935 8.38346 20 8.76192 20H11.2385C11.6165 20 11.9231 19.6935 11.9231 19.315V18.2392C12.8365 18.0269 13.6931 17.6677 14.4665 17.1858L15.2273 17.9465C15.4946 18.2138 15.9285 18.2138 16.1958 17.9465L17.9469 16.1954C18.2142 15.9281 18.2142 15.4942 17.9469 15.2269L17.1862 14.4662C17.6677 13.6931 18.0269 12.8362 18.2396 11.9227H19.3154C19.6935 11.9231 20 11.6165 20 11.2381V8.76154C20 8.38346 19.6935 8.07692 19.315 8.07692ZM10 13.4615C8.08808 13.4615 6.53846 11.9115 6.53846 10C6.53846 8.08808 8.08808 6.53846 10 6.53846C11.9119 6.53846 13.4615 8.08808 13.4615 10C13.4615 11.9115 11.9119 13.4615 10 13.4615Z" fill="#695CA0"/>
</svg>
