<svg width="23" height="15" viewBox="0 0 23 15" fill="none" xmlns="http://www.w3.org/2000/svg">
<path d="M11.99 0C6.98999 0 2.71999 3.11 0.98999 7.5C2.71999 11.89 6.98999 15 11.99 15C16.99 15 21.26 11.89 22.99 7.5C21.26 3.11 16.99 0 11.99 0ZM11.99 12.5C9.22999 12.5 6.98999 10.26 6.98999 7.5C6.98999 4.74 9.22999 2.5 11.99 2.5C14.75 2.5 16.99 4.74 16.99 7.5C16.99 10.26 14.75 12.5 11.99 12.5ZM11.99 4.5C10.33 4.5 8.98999 5.84 8.98999 7.5C8.98999 9.16 10.33 10.5 11.99 10.5C13.65 10.5 14.99 9.16 14.99 7.5C14.99 5.84 13.65 4.5 11.99 4.5Z" fill="white"/>
</svg>
