<svg width="26" height="27" viewBox="0 0 26 27" fill="none" xmlns="http://www.w3.org/2000/svg">
<path d="M12.9776 0C6.13641 0 0.532187 5.32309 0 12.0874L6.97978 14.9996C7.58925 14.5777 8.31307 14.3521 9.0543 14.353C9.12356 14.353 9.19202 14.3549 9.25945 14.3587L12.3638 9.81784V9.75427C12.3638 7.02193 14.5667 4.79842 17.2747 4.79842C19.9825 4.79842 22.1854 7.02193 22.1854 9.75427C22.1854 12.4865 19.9825 14.7109 17.2747 14.7109C17.2371 14.7109 17.2005 14.71 17.1631 14.7091L12.7357 17.8958C12.7386 17.9549 12.7404 18.0139 12.7404 18.072C12.7404 20.124 11.0867 21.7929 9.0543 21.7929C7.27025 21.7929 5.77759 20.5073 5.4403 18.8057L0.447891 16.7227C1.99398 22.2388 7.01624 26.283 12.9776 26.283C20.17 26.283 26 20.3986 26 13.1415C26 5.88352 20.17 0 12.9776 0ZM8.16075 19.94L6.56124 19.2729C6.8443 19.8688 7.33525 20.3672 7.98647 20.641C9.39382 21.2331 11.0167 20.5594 11.6033 19.1379C11.8873 18.4544 11.889 17.6863 11.608 17.0016C11.3269 16.312 10.7956 15.7741 10.1144 15.4874C9.43698 15.2035 8.71173 15.2138 8.07452 15.4565L9.72745 16.1461C10.7656 16.5828 11.2566 17.7858 10.8237 18.8334C10.3918 19.881 9.19892 20.3767 8.16075 19.94ZM20.547 9.75427C20.547 7.93376 19.0787 6.45145 17.275 6.45145C15.4703 6.45145 14.002 7.93376 14.002 9.75427C14.002 11.5749 15.4703 13.0563 17.275 13.0563C19.0787 13.0563 20.547 11.5749 20.547 9.75427ZM14.8219 9.74868C14.8219 8.3788 15.9229 7.26852 17.2797 7.26852C18.6374 7.26852 19.7384 8.3788 19.7384 9.74868C19.7384 11.1186 18.6374 12.2289 17.2796 12.2289C15.9229 12.2289 14.8218 11.1186 14.8218 9.74878L14.8219 9.74868Z" fill="#c7d5e0"/>
</svg>
